# xmcd
#
# Track frame offsets:
#	150
#	7070
#	35442
#	64124
#	89821
#	115898
#	147332
#	171145
#	198237
#	222381
#	239856
#
# Disc length: 3507 seconds
#
# Revision: 10
# Processed by: cddbd v1.5.2PL0 Copyright (c) Steve Scherf et al.
# Submitted via: Jack! The Knife 20 Magnifico
#
DISCID=a90db10b
DTITLE=Rage - 21
DYEAR=2012
DGENRE=Metal
TTITLE0=House Wins
TTITLE1=Twenty One
TTITLE2=Forever Dead
TTITLE3=Feel My Pain
TTITLE4=Serial Killer
TTITLE5=Psycho Terror
TTITLE6=Destiny
TTITLE7=Death Romantic
TTITLE8=Black And White
TTITLE9=Concrete Wall
TTITLE10=Eternally
EXTD=Charlie Bauerfeind, Victor Smolski
EXTT0=Victor Smolski
EXTT1=Victor Smolski
EXTT2=Victor Smolski
EXTT3=Victor Smolski
EXTT4=Smolski, Wagner
EXTT5=Hilgers, Smolski
EXTT6=Smolski, Wagner
EXTT7=Smolski, Wagner
EXTT8=Smolski, Wagner
EXTT9=Smolski, Wagner
EXTT10=Victor Smolski
PLAYORDER=
